<svg id="visual" viewBox="0 0 960 540" width="960" height="540" xmlns="http://www.w3.org/2000/svg" xmlns:xlink="http://www.w3.org/1999/xlink" version="1.1"><rect x="0" y="0" width="960" height="540" fill="#8da9be"></rect><path d="M0 364L22.8 358.3C45.7 352.7 91.3 341.3 137 342.5C182.7 343.7 228.3 357.3 274 359C319.7 360.7 365.3 350.3 411.2 355C457 359.7 503 379.3 548.8 377.3C594.7 375.3 640.3 351.7 686 344.3C731.7 337 777.3 346 823 347.5C868.7 349 914.3 343 937.2 340L960 337L960 541L937.2 541C914.3 541 868.7 541 823 541C777.3 541 731.7 541 686 541C640.3 541 594.7 541 548.8 541C503 541 457 541 411.2 541C365.3 541 319.7 541 274 541C228.3 541 182.7 541 137 541C91.3 541 45.7 541 22.8 541L0 541Z" fill="#3a5fe6"></path><path d="M0 359L22.8 364.7C45.7 370.3 91.3 381.7 137 389C182.7 396.3 228.3 399.7 274 403.7C319.7 407.7 365.3 412.3 411.2 406C457 399.7 503 382.3 548.8 379.5C594.7 376.7 640.3 388.3 686 395.5C731.7 402.7 777.3 405.3 823 406.2C868.7 407 914.3 406 937.2 405.5L960 405L960 541L937.2 541C914.3 541 868.7 541 823 541C777.3 541 731.7 541 686 541C640.3 541 594.7 541 548.8 541C503 541 457 541 411.2 541C365.3 541 319.7 541 274 541C228.3 541 182.7 541 137 541C91.3 541 45.7 541 22.8 541L0 541Z" fill="#0b73e7"></path><path d="M0 429L22.8 427.3C45.7 425.7 91.3 422.3 137 424.8C182.7 427.3 228.3 435.7 274 434.2C319.7 432.7 365.3 421.3 411.2 413.7C457 406 503 402 548.8 406C594.7 410 640.3 422 686 432.2C731.7 442.3 777.3 450.7 823 451.8C868.7 453 914.3 447 937.2 444L960 441L960 541L937.2 541C914.3 541 868.7 541 823 541C777.3 541 731.7 541 686 541C640.3 541 594.7 541 548.8 541C503 541 457 541 411.2 541C365.3 541 319.7 541 274 541C228.3 541 182.7 541 137 541C91.3 541 45.7 541 22.8 541L0 541Z" fill="#0084e2"></path><path d="M0 485L22.8 481.2C45.7 477.3 91.3 469.7 137 463.8C182.7 458 228.3 454 274 455.2C319.7 456.3 365.3 462.7 411.2 462.8C457 463 503 457 548.8 454.2C594.7 451.3 640.3 451.7 686 457.7C731.7 463.7 777.3 475.3 823 474.7C868.7 474 914.3 461 937.2 454.5L960 448L960 541L937.2 541C914.3 541 868.7 541 823 541C777.3 541 731.7 541 686 541C640.3 541 594.7 541 548.8 541C503 541 457 541 411.2 541C365.3 541 319.7 541 274 541C228.3 541 182.7 541 137 541C91.3 541 45.7 541 22.8 541L0 541Z" fill="#2e93da"></path><path d="M0 503L22.8 501.7C45.7 500.3 91.3 497.7 137 497.2C182.7 496.7 228.3 498.3 274 497.2C319.7 496 365.3 492 411.2 490.5C457 489 503 490 548.8 488.5C594.7 487 640.3 483 686 483.5C731.7 484 777.3 489 823 493.8C868.7 498.7 914.3 503.3 937.2 505.7L960 508L960 541L937.2 541C914.3 541 868.7 541 823 541C777.3 541 731.7 541 686 541C640.3 541 594.7 541 548.8 541C503 541 457 541 411.2 541C365.3 541 319.7 541 274 541C228.3 541 182.7 541 137 541C91.3 541 45.7 541 22.8 541L0 541Z" fill="#559fcf"></path></svg>